<svg version="1.1" xmlns="http://www.w3.org/2000/svg" xmlns:xlink="http://www.w3.org/1999/xlink" width="588" height="286"><defs><clipPath id="iylbuyQXzDsN"><path fill="none" stroke="none" d=" M 0 0 L 588 0 L 588 286 L 0 286 L 0 0 Z"/></clipPath></defs><g transform="scale(1,1)" clip-path="url(#iylbuyQXzDsN)"><g><path fill="rgb(102,204,255)" stroke="none" paint-order="stroke fill markers" d=" M 473.77250801612144 177.42381430362727 C 481.1901981205743 144.45630272828134 410.74596790639885 100.52792649805455 316.43091603873825 79.30703982783092 C 222.11586417107753 58.08615315760727 139.64518208833175 67.60867412102684 132.2274919838789 100.57618569637273 C 124.80980187942606 133.54369727171866 195.25403209360144 177.47207350194543 289.5690839612621 198.69296017216908 C 383.8841358289228 219.91384684239273 466.3548179116686 210.39132587897316 473.77250801612144 177.42381430362727 Z" fill-opacity="0.14901960784313725"/><path fill="none" stroke="rgb(102,204,255)" paint-order="fill stroke markers" d=" M 473.77250801612144 177.42381430362727 C 481.1901981205743 144.45630272828134 410.74596790639885 100.52792649805455 316.43091603873825 79.30703982783092 C 222.11586417107753 58.08615315760727 139.64518208833175 67.60867412102684 132.2274919838789 100.57618569637273 C 124.80980187942606 133.54369727171866 195.25403209360144 177.47207350194543 289.5690839612621 198.69296017216908 C 383.8841358289228 219.91384684239273 466.3548179116686 210.39132587897316 473.77250801612144 177.42381430362727 Z" stroke-opacity="1" stroke-linecap="round" stroke-linejoin="round" stroke-miterlimit="10"/><path fill="none" stroke="rgb(96,96,96)" paint-order="fill stroke markers" d=" M 107.00000000000014 255.99999999999994 L 107.00000000000014 26" stroke-opacity="1" stroke-linecap="round" stroke-linejoin="round" stroke-miterlimit="10"/><path fill="none" stroke="rgb(96,96,96)" paint-order="fill stroke markers" d=" M 107.00000000000014 26 L 489.6666666666668 26" stroke-opacity="1" stroke-linecap="round" stroke-linejoin="round" stroke-miterlimit="10"/><path fill="none" stroke="rgb(96,96,96)" paint-order="fill stroke markers" d=" M 489.6666666666668 26 L 489.6666666666668 255.99999999999994" stroke-opacity="1" stroke-linecap="round" stroke-linejoin="round" stroke-miterlimit="10"/><path fill="none" stroke="rgb(96,96,96)" paint-order="fill stroke markers" d=" M 489.6666666666668 255.99999999999994 L 107.00000000000014 255.99999999999994" stroke-opacity="1" stroke-linecap="round" stroke-linejoin="round" stroke-miterlimit="10"/><path fill="none" stroke="rgb(0,0,0)" paint-order="fill stroke markers" d=" M 378.3333333333336 26 L 160.3333333333335 255.99999999999994" stroke-opacity="1" stroke-linecap="round" stroke-linejoin="round" stroke-miterlimit="10" stroke-width="1.5"/><path fill="none" stroke="rgb(0,0,0)" paint-order="fill stroke markers" d=" M 304.369977960116 104.03473273321119 L 430.33333333333366 255.99999999999994" stroke-opacity="1" stroke-linecap="round" stroke-linejoin="round" stroke-miterlimit="10" stroke-width="1.5"/><g transform="scale(27,27)"><g transform="translate(14.25925925925926,2.0564813703703706)"><path fill="rgb(0,0,0)" stroke="none" paint-order="stroke fill markers" d=" M 0.734 -0.6 L 0.429 -0.274 L 0.373 -0.049 Q 0.41500000000000004 -0.047 0.434 -0.047 Q 0.451 -0.047 0.458 -0.0465 Q 0.465 -0.046 0.47050000000000003 -0.042 Q 0.47600000000000003 -0.038 0.47600000000000003 -0.029 Q 0.47600000000000003 -0.016 0.47000000000000003 -0.009000000000000001 Q 0.464 -0.002 0.459 -0.001 Q 0.454 0 0.447 0 Q 0.43 0 0.3705 -0.0015 Q 0.311 -0.003 0.294 -0.003 Q 0.28200000000000003 -0.003 0.2575 -0.0025 Q 0.233 -0.002 0.221 -0.002 Q 0.20800000000000002 -0.002 0.183 -0.001 Q 0.158 0 0.145 0 Q 0.123 0 0.123 -0.018000000000000002 Q 0.123 -0.035 0.133 -0.043000000000000003 Q 0.137 -0.047 0.169 -0.047 Q 0.20400000000000001 -0.047 0.221 -0.049 Q 0.234 -0.05 0.23750000000000002 -0.0525 Q 0.241 -0.055 0.244 -0.068 L 0.296 -0.274 L 0.14400000000000002 -0.623 Q 0.14 -0.632 0.137 -0.634 Q 0.134 -0.636 0.124 -0.638 Q 0.11 -0.639 0.085 -0.639 Q 0.068 -0.639 0.0615 -0.6395000000000001 Q 0.055 -0.64 0.0495 -0.644 Q 0.044 -0.648 0.044 -0.657 Q 0.044 -0.67 0.0495 -0.677 Q 0.055 -0.684 0.059500000000000004 -0.685 Q 0.064 -0.686 0.07200000000000001 -0.686 Q 0.083 -0.686 0.1075 -0.685 Q 0.132 -0.684 0.14400000000000002 -0.684 Q 0.155 -0.684 0.178 -0.6835 Q 0.201 -0.683 0.213 -0.683 Q 0.23 -0.683 0.2905 -0.6845 Q 0.35100000000000003 -0.686 0.368 -0.686 Q 0.39 -0.686 0.39 -0.668 Q 0.39 -0.649 0.3815 -0.644 Q 0.373 -0.639 0.356 -0.639 Q 0.328 -0.639 0.3 -0.635 L 0.428 -0.342 L 0.6990000000000001 -0.632 Q 0.678 -0.639 0.654 -0.639 Q 0.627 -0.639 0.627 -0.657 Q 0.627 -0.686 0.654 -0.686 Q 0.672 -0.686 0.709 -0.6845 Q 0.746 -0.683 0.765 -0.683 Q 0.78 -0.683 0.8115 -0.6845 Q 0.843 -0.686 0.857 -0.686 Q 0.866 -0.686 0.8705 -0.68 Q 0.875 -0.674 0.875 -0.668 Q 0.875 -0.655 0.8695 -0.648 Q 0.864 -0.641 0.859 -0.64 Q 0.854 -0.639 0.846 -0.639 Q 0.8 -0.638 0.7765 -0.629 Q 0.753 -0.62 0.734 -0.6 Z"/></g><g transform="translate(15.46717087037037,2.0564813703703706)"><path fill="rgb(0,0,0)" stroke="none" paint-order="stroke fill markers" d=" M 0.788 -0.332 L 0.105 -0.332 Q 0.064 -0.332 0.064 -0.362 Q 0.064 -0.393 0.11 -0.393 L 0.783 -0.393 Q 0.8290000000000001 -0.393 0.8290000000000001 -0.362 Q 0.8290000000000001 -0.332 0.788 -0.332 M 0.783 -0.108 L 0.11 -0.108 Q 0.064 -0.108 0.064 -0.139 Q 0.064 -0.169 0.105 -0.169 L 0.788 -0.169 Q 0.8290000000000001 -0.169 0.8290000000000001 -0.139 Q 0.8290000000000001 -0.108 0.783 -0.108 Z"/></g><g transform="translate(16.63938948148148,2.0564813703703706)"><path fill="rgb(0,0,0)" stroke="none" paint-order="stroke fill markers" d=" M 0.354 -0.623 L 0.354 -0.047 L 0.494 -0.047 L 0.494 0 Q 0.45 -0.003 0.295 -0.003 Q 0.14 -0.003 0.096 0 L 0.096 -0.047 L 0.23500000000000001 -0.047 L 0.23500000000000001 -0.5640000000000001 Q 0.17300000000000001 -0.544 0.105 -0.544 L 0.085 -0.544 L 0.085 -0.591 L 0.105 -0.591 Q 0.229 -0.591 0.306 -0.648 Q 0.315 -0.655 0.328 -0.655 Q 0.34600000000000003 -0.655 0.35000000000000003 -0.6485 Q 0.354 -0.642 0.354 -0.623 Z"/></g><g transform="translate(17.21438648148148,2.0564813703703706)"><path fill="rgb(0,0,0)" stroke="none" paint-order="stroke fill markers" d=" M 0.199 -0.47900000000000004 L 0.34900000000000003 -0.395 Q 0.419 -0.441 0.419 -0.507 Q 0.419 -0.558 0.3835 -0.587 Q 0.34800000000000003 -0.616 0.28500000000000003 -0.616 Q 0.265 -0.616 0.247 -0.6135 Q 0.229 -0.611 0.20600000000000002 -0.604 Q 0.183 -0.597 0.169 -0.5805 Q 0.155 -0.5640000000000001 0.155 -0.539 Q 0.155 -0.504 0.199 -0.47900000000000004 M 0.393 -0.37 Q 0.42 -0.354 0.436 -0.3435 Q 0.452 -0.333 0.47650000000000003 -0.31 Q 0.501 -0.28700000000000003 0.5135 -0.256 Q 0.526 -0.225 0.526 -0.187 Q 0.526 -0.1 0.463 -0.0445 Q 0.4 0.011 0.28500000000000003 0.011 Q 0.181 0.011 0.1145 -0.032 Q 0.048 -0.075 0.048 -0.161 Q 0.048 -0.273 0.176 -0.329 Q 0.08 -0.383 0.08 -0.48 Q 0.08 -0.556 0.1345 -0.6055 Q 0.189 -0.655 0.289 -0.655 Q 0.38 -0.655 0.437 -0.618 Q 0.494 -0.581 0.494 -0.508 Q 0.494 -0.422 0.393 -0.37 M 0.222 -0.302 Q 0.134 -0.252 0.134 -0.161 Q 0.134 -0.10200000000000001 0.17500000000000002 -0.067 Q 0.216 -0.032 0.289 -0.032 Q 0.324 -0.032 0.3545 -0.0385 Q 0.385 -0.045 0.41250000000000003 -0.069 Q 0.44 -0.093 0.44 -0.132 Q 0.44 -0.155 0.4275 -0.17300000000000001 Q 0.41500000000000004 -0.191 0.4015 -0.2005 Q 0.388 -0.21 0.359 -0.226 Q 0.247 -0.289 0.222 -0.302 Z"/></g></g><g transform="scale(27,27)"><g transform="translate(11.25925925925926,9.019444333333334)"><path fill="rgb(0,0,0)" stroke="none" paint-order="stroke fill markers" d=" M 0.734 -0.6 L 0.429 -0.274 L 0.373 -0.049 Q 0.41500000000000004 -0.047 0.434 -0.047 Q 0.451 -0.047 0.458 -0.0465 Q 0.465 -0.046 0.47050000000000003 -0.042 Q 0.47600000000000003 -0.038 0.47600000000000003 -0.029 Q 0.47600000000000003 -0.016 0.47000000000000003 -0.009000000000000001 Q 0.464 -0.002 0.459 -0.001 Q 0.454 0 0.447 0 Q 0.43 0 0.3705 -0.0015 Q 0.311 -0.003 0.294 -0.003 Q 0.28200000000000003 -0.003 0.2575 -0.0025 Q 0.233 -0.002 0.221 -0.002 Q 0.20800000000000002 -0.002 0.183 -0.001 Q 0.158 0 0.145 0 Q 0.123 0 0.123 -0.018000000000000002 Q 0.123 -0.035 0.133 -0.043000000000000003 Q 0.137 -0.047 0.169 -0.047 Q 0.20400000000000001 -0.047 0.221 -0.049 Q 0.234 -0.05 0.23750000000000002 -0.0525 Q 0.241 -0.055 0.244 -0.068 L 0.296 -0.274 L 0.14400000000000002 -0.623 Q 0.14 -0.632 0.137 -0.634 Q 0.134 -0.636 0.124 -0.638 Q 0.11 -0.639 0.085 -0.639 Q 0.068 -0.639 0.0615 -0.6395000000000001 Q 0.055 -0.64 0.0495 -0.644 Q 0.044 -0.648 0.044 -0.657 Q 0.044 -0.67 0.0495 -0.677 Q 0.055 -0.684 0.059500000000000004 -0.685 Q 0.064 -0.686 0.07200000000000001 -0.686 Q 0.083 -0.686 0.1075 -0.685 Q 0.132 -0.684 0.14400000000000002 -0.684 Q 0.155 -0.684 0.178 -0.6835 Q 0.201 -0.683 0.213 -0.683 Q 0.23 -0.683 0.2905 -0.6845 Q 0.35100000000000003 -0.686 0.368 -0.686 Q 0.39 -0.686 0.39 -0.668 Q 0.39 -0.649 0.3815 -0.644 Q 0.373 -0.639 0.356 -0.639 Q 0.328 -0.639 0.3 -0.635 L 0.428 -0.342 L 0.6990000000000001 -0.632 Q 0.678 -0.639 0.654 -0.639 Q 0.627 -0.639 0.627 -0.657 Q 0.627 -0.686 0.654 -0.686 Q 0.672 -0.686 0.709 -0.6845 Q 0.746 -0.683 0.765 -0.683 Q 0.78 -0.683 0.8115 -0.6845 Q 0.843 -0.686 0.857 -0.686 Q 0.866 -0.686 0.8705 -0.68 Q 0.875 -0.674 0.875 -0.668 Q 0.875 -0.655 0.8695 -0.648 Q 0.864 -0.641 0.859 -0.64 Q 0.854 -0.639 0.846 -0.639 Q 0.8 -0.638 0.7765 -0.629 Q 0.753 -0.62 0.734 -0.6 Z"/></g><g transform="translate(12.46717087037037,9.019444333333334)"><path fill="rgb(0,0,0)" stroke="none" paint-order="stroke fill markers" d=" M 0.788 -0.332 L 0.105 -0.332 Q 0.064 -0.332 0.064 -0.362 Q 0.064 -0.393 0.11 -0.393 L 0.783 -0.393 Q 0.8290000000000001 -0.393 0.8290000000000001 -0.362 Q 0.8290000000000001 -0.332 0.788 -0.332 M 0.783 -0.108 L 0.11 -0.108 Q 0.064 -0.108 0.064 -0.139 Q 0.064 -0.169 0.105 -0.169 L 0.788 -0.169 Q 0.8290000000000001 -0.169 0.8290000000000001 -0.139 Q 0.8290000000000001 -0.108 0.783 -0.108 Z"/></g><g transform="translate(13.639389481481482,9.019444333333334)"><path fill="rgb(0,0,0)" stroke="none" paint-order="stroke fill markers" d=" M 0.517 -0.222 L 0.486 0 L 0.057 0 L 0.057 -0.018000000000000002 Q 0.057 -0.034 0.059000000000000004 -0.0385 Q 0.061 -0.043000000000000003 0.07 -0.052000000000000005 L 0.271 -0.257 Q 0.379 -0.367 0.379 -0.465 Q 0.379 -0.525 0.34400000000000003 -0.5665 Q 0.309 -0.608 0.247 -0.608 Q 0.186 -0.608 0.14400000000000002 -0.5730000000000001 Q 0.155 -0.5700000000000001 0.166 -0.5645 Q 0.177 -0.559 0.189 -0.542 Q 0.201 -0.525 0.201 -0.501 Q 0.201 -0.466 0.1785 -0.4475 Q 0.156 -0.429 0.129 -0.429 Q 0.10400000000000001 -0.429 0.0805 -0.4465 Q 0.057 -0.464 0.057 -0.503 Q 0.057 -0.5700000000000001 0.11850000000000001 -0.6125 Q 0.18 -0.655 0.272 -0.655 Q 0.379 -0.655 0.448 -0.603 Q 0.517 -0.551 0.517 -0.466 Q 0.517 -0.431 0.507 -0.404 Q 0.497 -0.377 0.46900000000000003 -0.34750000000000003 Q 0.441 -0.318 0.417 -0.299 Q 0.393 -0.28 0.339 -0.24 Q 0.292 -0.20600000000000002 0.195 -0.125 L 0.342 -0.125 Q 0.433 -0.125 0.444 -0.131 Q 0.457 -0.138 0.47000000000000003 -0.222 L 0.517 -0.222 Z"/></g><g transform="translate(14.214386481481482,9.019444333333334)"><path fill="rgb(0,0,0)" stroke="none" paint-order="stroke fill markers" d=" M 0.5285 -0.369 Q 0.5285 -0.369 0.52875 -0.359 Q 0.529 -0.34900000000000003 0.529 -0.319 Q 0.529 -0.289 0.5285 -0.2685 Q 0.528 -0.248 0.523 -0.2105 Q 0.518 -0.17300000000000001 0.5095000000000001 -0.1465 Q 0.501 -0.12 0.483 -0.088 Q 0.465 -0.056 0.44 -0.036000000000000004 Q 0.41500000000000004 -0.016 0.3755 -0.0025 Q 0.336 0.011 0.28700000000000003 0.011 Q 0.23700000000000002 0.011 0.1975 -0.003 Q 0.158 -0.017 0.1335 -0.0365 Q 0.109 -0.056 0.091 -0.0885 Q 0.073 -0.121 0.0645 -0.147 Q 0.056 -0.17300000000000001 0.051000000000000004 -0.211 Q 0.046 -0.249 0.0455 -0.269 Q 0.045 -0.289 0.045 -0.319 Q 0.045 -0.34900000000000003 0.0455 -0.369 Q 0.046 -0.389 0.051000000000000004 -0.4275 Q 0.056 -0.466 0.0645 -0.493 Q 0.073 -0.52 0.091 -0.553 Q 0.109 -0.586 0.1335 -0.6065 Q 0.158 -0.627 0.1975 -0.641 Q 0.23700000000000002 -0.655 0.28700000000000003 -0.655 Q 0.337 -0.655 0.3765 -0.6405 Q 0.41600000000000004 -0.626 0.4405 -0.606 Q 0.465 -0.586 0.483 -0.5525 Q 0.501 -0.519 0.5095000000000001 -0.4925 Q 0.518 -0.466 0.523 -0.4275 Q 0.528 -0.389 0.5285 -0.369 M 0.28700000000000003 -0.025 Q 0.307 -0.025 0.326 -0.0315 Q 0.34500000000000003 -0.038 0.3665 -0.0635 Q 0.388 -0.089 0.394 -0.132 Q 0.401 -0.184 0.401 -0.331 Q 0.401 -0.519 0.384 -0.556 Q 0.371 -0.587 0.34400000000000003 -0.603 Q 0.317 -0.619 0.28700000000000003 -0.619 Q 0.269 -0.619 0.2505 -0.614 Q 0.232 -0.609 0.209 -0.5845 Q 0.186 -0.56 0.181 -0.52 Q 0.17300000000000001 -0.468 0.17300000000000001 -0.331 Q 0.17300000000000001 -0.17200000000000001 0.182 -0.12 Q 0.191 -0.07100000000000001 0.2225 -0.048 Q 0.254 -0.025 0.28700000000000003 -0.025 Z"/></g></g><g transform="scale(27,27)"><g transform="translate(4.2592592592592595,2.0935184074074074)"><path fill="rgb(0,0,0)" stroke="none" paint-order="stroke fill markers" d=" M 0.734 -0.6 L 0.429 -0.274 L 0.373 -0.049 Q 0.41500000000000004 -0.047 0.434 -0.047 Q 0.451 -0.047 0.458 -0.0465 Q 0.465 -0.046 0.47050000000000003 -0.042 Q 0.47600000000000003 -0.038 0.47600000000000003 -0.029 Q 0.47600000000000003 -0.016 0.47000000000000003 -0.009000000000000001 Q 0.464 -0.002 0.459 -0.001 Q 0.454 0 0.447 0 Q 0.43 0 0.3705 -0.0015 Q 0.311 -0.003 0.294 -0.003 Q 0.28200000000000003 -0.003 0.2575 -0.0025 Q 0.233 -0.002 0.221 -0.002 Q 0.20800000000000002 -0.002 0.183 -0.001 Q 0.158 0 0.145 0 Q 0.123 0 0.123 -0.018000000000000002 Q 0.123 -0.035 0.133 -0.043000000000000003 Q 0.137 -0.047 0.169 -0.047 Q 0.20400000000000001 -0.047 0.221 -0.049 Q 0.234 -0.05 0.23750000000000002 -0.0525 Q 0.241 -0.055 0.244 -0.068 L 0.296 -0.274 L 0.14400000000000002 -0.623 Q 0.14 -0.632 0.137 -0.634 Q 0.134 -0.636 0.124 -0.638 Q 0.11 -0.639 0.085 -0.639 Q 0.068 -0.639 0.0615 -0.6395000000000001 Q 0.055 -0.64 0.0495 -0.644 Q 0.044 -0.648 0.044 -0.657 Q 0.044 -0.67 0.0495 -0.677 Q 0.055 -0.684 0.059500000000000004 -0.685 Q 0.064 -0.686 0.07200000000000001 -0.686 Q 0.083 -0.686 0.1075 -0.685 Q 0.132 -0.684 0.14400000000000002 -0.684 Q 0.155 -0.684 0.178 -0.6835 Q 0.201 -0.683 0.213 -0.683 Q 0.23 -0.683 0.2905 -0.6845 Q 0.35100000000000003 -0.686 0.368 -0.686 Q 0.39 -0.686 0.39 -0.668 Q 0.39 -0.649 0.3815 -0.644 Q 0.373 -0.639 0.356 -0.639 Q 0.328 -0.639 0.3 -0.635 L 0.428 -0.342 L 0.6990000000000001 -0.632 Q 0.678 -0.639 0.654 -0.639 Q 0.627 -0.639 0.627 -0.657 Q 0.627 -0.686 0.654 -0.686 Q 0.672 -0.686 0.709 -0.6845 Q 0.746 -0.683 0.765 -0.683 Q 0.78 -0.683 0.8115 -0.6845 Q 0.843 -0.686 0.857 -0.686 Q 0.866 -0.686 0.8705 -0.68 Q 0.875 -0.674 0.875 -0.668 Q 0.875 -0.655 0.8695 -0.648 Q 0.864 -0.641 0.859 -0.64 Q 0.854 -0.639 0.846 -0.639 Q 0.8 -0.638 0.7765 -0.629 Q 0.753 -0.62 0.734 -0.6 Z"/></g><g transform="translate(5.467170870370371,2.0935184074074074)"><path fill="rgb(0,0,0)" stroke="none" paint-order="stroke fill markers" d=" M 0.788 -0.332 L 0.105 -0.332 Q 0.064 -0.332 0.064 -0.362 Q 0.064 -0.393 0.11 -0.393 L 0.783 -0.393 Q 0.8290000000000001 -0.393 0.8290000000000001 -0.362 Q 0.8290000000000001 -0.332 0.788 -0.332 M 0.783 -0.108 L 0.11 -0.108 Q 0.064 -0.108 0.064 -0.139 Q 0.064 -0.169 0.105 -0.169 L 0.788 -0.169 Q 0.8290000000000001 -0.169 0.8290000000000001 -0.139 Q 0.8290000000000001 -0.108 0.783 -0.108 Z"/></g><g transform="translate(6.639389481481482,2.0935184074074074)"><path fill="rgb(0,0,0)" stroke="none" paint-order="stroke fill markers" d=" M 0.517 -0.222 L 0.486 0 L 0.057 0 L 0.057 -0.018000000000000002 Q 0.057 -0.034 0.059000000000000004 -0.0385 Q 0.061 -0.043000000000000003 0.07 -0.052000000000000005 L 0.271 -0.257 Q 0.379 -0.367 0.379 -0.465 Q 0.379 -0.525 0.34400000000000003 -0.5665 Q 0.309 -0.608 0.247 -0.608 Q 0.186 -0.608 0.14400000000000002 -0.5730000000000001 Q 0.155 -0.5700000000000001 0.166 -0.5645 Q 0.177 -0.559 0.189 -0.542 Q 0.201 -0.525 0.201 -0.501 Q 0.201 -0.466 0.1785 -0.4475 Q 0.156 -0.429 0.129 -0.429 Q 0.10400000000000001 -0.429 0.0805 -0.4465 Q 0.057 -0.464 0.057 -0.503 Q 0.057 -0.5700000000000001 0.11850000000000001 -0.6125 Q 0.18 -0.655 0.272 -0.655 Q 0.379 -0.655 0.448 -0.603 Q 0.517 -0.551 0.517 -0.466 Q 0.517 -0.431 0.507 -0.404 Q 0.497 -0.377 0.46900000000000003 -0.34750000000000003 Q 0.441 -0.318 0.417 -0.299 Q 0.393 -0.28 0.339 -0.24 Q 0.292 -0.20600000000000002 0.195 -0.125 L 0.342 -0.125 Q 0.433 -0.125 0.444 -0.131 Q 0.457 -0.138 0.47000000000000003 -0.222 L 0.517 -0.222 Z"/></g><g transform="translate(7.2143864814814815,2.0935184074074074)"><path fill="rgb(0,0,0)" stroke="none" paint-order="stroke fill markers" d=" M 0.517 -0.222 L 0.486 0 L 0.057 0 L 0.057 -0.018000000000000002 Q 0.057 -0.034 0.059000000000000004 -0.0385 Q 0.061 -0.043000000000000003 0.07 -0.052000000000000005 L 0.271 -0.257 Q 0.379 -0.367 0.379 -0.465 Q 0.379 -0.525 0.34400000000000003 -0.5665 Q 0.309 -0.608 0.247 -0.608 Q 0.186 -0.608 0.14400000000000002 -0.5730000000000001 Q 0.155 -0.5700000000000001 0.166 -0.5645 Q 0.177 -0.559 0.189 -0.542 Q 0.201 -0.525 0.201 -0.501 Q 0.201 -0.466 0.1785 -0.4475 Q 0.156 -0.429 0.129 -0.429 Q 0.10400000000000001 -0.429 0.0805 -0.4465 Q 0.057 -0.464 0.057 -0.503 Q 0.057 -0.5700000000000001 0.11850000000000001 -0.6125 Q 0.18 -0.655 0.272 -0.655 Q 0.379 -0.655 0.448 -0.603 Q 0.517 -0.551 0.517 -0.466 Q 0.517 -0.431 0.507 -0.404 Q 0.497 -0.377 0.46900000000000003 -0.34750000000000003 Q 0.441 -0.318 0.417 -0.299 Q 0.393 -0.28 0.339 -0.24 Q 0.292 -0.20600000000000002 0.195 -0.125 L 0.342 -0.125 Q 0.433 -0.125 0.444 -0.131 Q 0.457 -0.138 0.47000000000000003 -0.222 L 0.517 -0.222 Z"/></g></g><g transform="scale(27,27)"><g transform="translate(5.444444444444445,4.426851740740741)"><path fill="rgb(0,153,255)" stroke="none" paint-order="stroke fill markers" d=" M 0.582 -0.395 L 0.74 -0.064 Q 0.745 -0.054 0.7485 -0.051500000000000004 Q 0.752 -0.049 0.763 -0.048 Q 0.778 -0.047 0.802 -0.047 Q 0.8170000000000001 -0.047 0.8235 -0.0465 Q 0.8300000000000001 -0.046 0.836 -0.042 Q 0.842 -0.038 0.842 -0.029 Q 0.842 0 0.8140000000000001 0 Q 0.802 0 0.7785 -0.001 Q 0.755 -0.002 0.744 -0.002 Q 0.732 -0.002 0.709 -0.0025 Q 0.686 -0.003 0.675 -0.003 Q 0.658 -0.003 0.5985 -0.0015 Q 0.539 0 0.522 0 Q 0.5 0 0.5 -0.018000000000000002 Q 0.5 -0.031 0.506 -0.038 Q 0.512 -0.045 0.5165 -0.046 Q 0.521 -0.047 0.529 -0.047 Q 0.54 -0.047 0.554 -0.0485 Q 0.5680000000000001 -0.05 0.578 -0.052000000000000005 L 0.587 -0.053 L 0.47400000000000003 -0.289 L 0.241 -0.057 Q 0.268 -0.047 0.3 -0.047 Q 0.326 -0.047 0.326 -0.029 Q 0.326 0 0.298 0 Q 0.28300000000000003 0 0.2325 -0.0015 Q 0.182 -0.003 0.168 -0.003 Q 0.156 -0.003 0.1135 -0.0015 Q 0.07100000000000001 0 0.059000000000000004 0 Q 0.049 0 0.044 -0.0055 Q 0.039 -0.011 0.039 -0.018000000000000002 Q 0.039 -0.032 0.0445 -0.0385 Q 0.05 -0.045 0.056 -0.046 Q 0.062 -0.047 0.074 -0.047 Q 0.115 -0.047 0.14300000000000002 -0.0545 Q 0.171 -0.062 0.18 -0.068 Q 0.189 -0.074 0.202 -0.08600000000000001 L 0.453 -0.334 L 0.315 -0.623 Q 0.31 -0.632 0.307 -0.6345000000000001 Q 0.304 -0.637 0.294 -0.638 Q 0.28 -0.639 0.255 -0.639 Q 0.23800000000000002 -0.639 0.231 -0.6395000000000001 Q 0.224 -0.64 0.219 -0.6445 Q 0.214 -0.649 0.214 -0.658 Q 0.214 -0.671 0.22 -0.6775 Q 0.226 -0.684 0.2305 -0.685 Q 0.23500000000000001 -0.686 0.242 -0.686 Q 0.253 -0.686 0.2765 -0.685 Q 0.3 -0.684 0.312 -0.684 Q 0.324 -0.684 0.34700000000000003 -0.6835 Q 0.37 -0.683 0.381 -0.683 Q 0.398 -0.683 0.457 -0.6845 Q 0.516 -0.686 0.533 -0.686 Q 0.555 -0.686 0.555 -0.667 Q 0.555 -0.639 0.526 -0.639 Q 0.498 -0.639 0.468 -0.633 L 0.56 -0.44 L 0.751 -0.629 Q 0.714 -0.638 0.6910000000000001 -0.639 Q 0.666 -0.639 0.666 -0.658 Q 0.666 -0.686 0.6940000000000001 -0.686 Q 0.708 -0.686 0.759 -0.6845 Q 0.81 -0.683 0.8240000000000001 -0.683 Q 0.842 -0.683 0.879 -0.6845 Q 0.916 -0.686 0.933 -0.686 Q 0.9530000000000001 -0.686 0.9530000000000001 -0.668 Q 0.9530000000000001 -0.664 0.9520000000000001 -0.6585 Q 0.9510000000000001 -0.653 0.9460000000000001 -0.646 Q 0.9410000000000001 -0.639 0.932 -0.639 Q 0.859 -0.638 0.834 -0.629 Q 0.809 -0.62 0.776 -0.588 L 0.714 -0.525 L 0.582 -0.395 Z"/></g><g transform="translate(6.747218055555557,4.426851740740741)"><path fill="rgb(0,153,255)" stroke="none" paint-order="stroke fill markers" d=" M 0.788 -0.332 L 0.105 -0.332 Q 0.064 -0.332 0.064 -0.362 Q 0.064 -0.393 0.11 -0.393 L 0.783 -0.393 Q 0.8290000000000001 -0.393 0.8290000000000001 -0.362 Q 0.8290000000000001 -0.332 0.788 -0.332 M 0.783 -0.108 L 0.11 -0.108 Q 0.064 -0.108 0.064 -0.139 Q 0.064 -0.169 0.105 -0.169 L 0.788 -0.169 Q 0.8290000000000001 -0.169 0.8290000000000001 -0.139 Q 0.8290000000000001 -0.108 0.783 -0.108 Z"/></g><g transform="translate(7.919436666666668,4.426851740740741)"><path fill="rgb(0,153,255)" stroke="none" paint-order="stroke fill markers" d=" M 0.354 -0.623 L 0.354 -0.047 L 0.494 -0.047 L 0.494 0 Q 0.45 -0.003 0.295 -0.003 Q 0.14 -0.003 0.096 0 L 0.096 -0.047 L 0.23500000000000001 -0.047 L 0.23500000000000001 -0.5640000000000001 Q 0.17300000000000001 -0.544 0.105 -0.544 L 0.085 -0.544 L 0.085 -0.591 L 0.105 -0.591 Q 0.229 -0.591 0.306 -0.648 Q 0.315 -0.655 0.328 -0.655 Q 0.34600000000000003 -0.655 0.35000000000000003 -0.6485 Q 0.354 -0.642 0.354 -0.623 Z"/></g><g transform="translate(8.494433666666668,4.426851740740741)"><path fill="rgb(0,153,255)" stroke="none" paint-order="stroke fill markers" d=" M 0.354 -0.623 L 0.354 -0.047 L 0.494 -0.047 L 0.494 0 Q 0.45 -0.003 0.295 -0.003 Q 0.14 -0.003 0.096 0 L 0.096 -0.047 L 0.23500000000000001 -0.047 L 0.23500000000000001 -0.5640000000000001 Q 0.17300000000000001 -0.544 0.105 -0.544 L 0.085 -0.544 L 0.085 -0.591 L 0.105 -0.591 Q 0.229 -0.591 0.306 -0.648 Q 0.315 -0.655 0.328 -0.655 Q 0.34600000000000003 -0.655 0.35000000000000003 -0.6485 Q 0.354 -0.642 0.354 -0.623 Z"/></g><g transform="translate(9.069430666666667,4.426851740740741)"><path fill="rgb(0,153,255)" stroke="none" paint-order="stroke fill markers" d=" M 0.517 -0.222 L 0.486 0 L 0.057 0 L 0.057 -0.018000000000000002 Q 0.057 -0.034 0.059000000000000004 -0.0385 Q 0.061 -0.043000000000000003 0.07 -0.052000000000000005 L 0.271 -0.257 Q 0.379 -0.367 0.379 -0.465 Q 0.379 -0.525 0.34400000000000003 -0.5665 Q 0.309 -0.608 0.247 -0.608 Q 0.186 -0.608 0.14400000000000002 -0.5730000000000001 Q 0.155 -0.5700000000000001 0.166 -0.5645 Q 0.177 -0.559 0.189 -0.542 Q 0.201 -0.525 0.201 -0.501 Q 0.201 -0.466 0.1785 -0.4475 Q 0.156 -0.429 0.129 -0.429 Q 0.10400000000000001 -0.429 0.0805 -0.4465 Q 0.057 -0.464 0.057 -0.503 Q 0.057 -0.5700000000000001 0.11850000000000001 -0.6125 Q 0.18 -0.655 0.272 -0.655 Q 0.379 -0.655 0.448 -0.603 Q 0.517 -0.551 0.517 -0.466 Q 0.517 -0.431 0.507 -0.404 Q 0.497 -0.377 0.46900000000000003 -0.34750000000000003 Q 0.441 -0.318 0.417 -0.299 Q 0.393 -0.28 0.339 -0.24 Q 0.292 -0.20600000000000002 0.195 -0.125 L 0.342 -0.125 Q 0.433 -0.125 0.444 -0.131 Q 0.457 -0.138 0.47000000000000003 -0.222 L 0.517 -0.222 Z"/></g></g></g></g></svg>