<svg version="1.1" xmlns="http://www.w3.org/2000/svg" xmlns:xlink="http://www.w3.org/1999/xlink" width="550" height="428"><defs><clipPath id="LrIpJKgPtXIJ"><path fill="none" stroke="none" d=" M 0 0 L 550 0 L 550 428 L 0 428 L 0 0 Z"/></clipPath></defs><g transform="scale(1,1)" clip-path="url(#LrIpJKgPtXIJ)"><g><path fill="none" stroke="rgb(0,0,0)" paint-order="fill stroke markers" d=" M 52.5 2.5 L 52.5 428.5" stroke-opacity="1" stroke-miterlimit="10"/><path fill="none" stroke="rgb(0,0,0)" paint-order="fill stroke markers" d=" M 52.5 1.5 L 48.5 5.5" stroke-opacity="1" stroke-miterlimit="10"/><path fill="none" stroke="rgb(0,0,0)" paint-order="fill stroke markers" d=" M 52.5 1.5 L 56.5 5.5" stroke-opacity="1" stroke-miterlimit="10"/><path fill="none" stroke="rgb(0,0,0)" paint-order="fill stroke markers" d=" M 0.5 365.5 L 548.5 365.5" stroke-opacity="1" stroke-miterlimit="10"/><path fill="none" stroke="rgb(0,0,0)" paint-order="fill stroke markers" d=" M 549.5 365.5 L 545.5 361.5" stroke-opacity="1" stroke-miterlimit="10"/><path fill="none" stroke="rgb(0,0,0)" paint-order="fill stroke markers" d=" M 549.5 365.5 L 545.5 369.5" stroke-opacity="1" stroke-miterlimit="10"/><path fill="none" stroke="rgb(0,0,0)" paint-order="fill stroke markers" d=" M 7.5 365.5 L 7.5 368.5" stroke-opacity="1" stroke-miterlimit="10"/><path fill="none" stroke="rgb(0,0,0)" paint-order="fill stroke markers" d=" M 52.5 365.5 L 52.5 368.5" stroke-opacity="1" stroke-miterlimit="10"/><path fill="none" stroke="rgb(0,0,0)" paint-order="fill stroke markers" d=" M 97.5 365.5 L 97.5 368.5" stroke-opacity="1" stroke-miterlimit="10"/><path fill="none" stroke="rgb(0,0,0)" paint-order="fill stroke markers" d=" M 142.5 365.5 L 142.5 368.5" stroke-opacity="1" stroke-miterlimit="10"/><path fill="none" stroke="rgb(0,0,0)" paint-order="fill stroke markers" d=" M 187.5 365.5 L 187.5 368.5" stroke-opacity="1" stroke-miterlimit="10"/><path fill="none" stroke="rgb(0,0,0)" paint-order="fill stroke markers" d=" M 231.5 365.5 L 231.5 368.5" stroke-opacity="1" stroke-miterlimit="10"/><path fill="none" stroke="rgb(0,0,0)" paint-order="fill stroke markers" d=" M 276.5 365.5 L 276.5 368.5" stroke-opacity="1" stroke-miterlimit="10"/><path fill="none" stroke="rgb(0,0,0)" paint-order="fill stroke markers" d=" M 321.5 365.5 L 321.5 368.5" stroke-opacity="1" stroke-miterlimit="10"/><path fill="none" stroke="rgb(0,0,0)" paint-order="fill stroke markers" d=" M 366.5 365.5 L 366.5 368.5" stroke-opacity="1" stroke-miterlimit="10"/><path fill="none" stroke="rgb(0,0,0)" paint-order="fill stroke markers" d=" M 411.5 365.5 L 411.5 368.5" stroke-opacity="1" stroke-miterlimit="10"/><path fill="none" stroke="rgb(0,0,0)" paint-order="fill stroke markers" d=" M 455.5 365.5 L 455.5 368.5" stroke-opacity="1" stroke-miterlimit="10"/><path fill="none" stroke="rgb(0,0,0)" paint-order="fill stroke markers" d=" M 500.5 365.5 L 500.5 368.5" stroke-opacity="1" stroke-miterlimit="10"/><path fill="none" stroke="rgb(0,0,0)" paint-order="fill stroke markers" d=" M 49.5 278.5 L 52.5 278.5" stroke-opacity="1" stroke-miterlimit="10"/><path fill="none" stroke="rgb(0,0,0)" paint-order="fill stroke markers" d=" M 49.5 191.5 L 52.5 191.5" stroke-opacity="1" stroke-miterlimit="10"/><path fill="none" stroke="rgb(0,0,0)" paint-order="fill stroke markers" d=" M 49.5 104.5 L 52.5 104.5" stroke-opacity="1" stroke-miterlimit="10"/><path fill="none" stroke="rgb(0,0,0)" paint-order="fill stroke markers" d=" M 49.5 17.5 L 52.5 17.5" stroke-opacity="1" stroke-miterlimit="10"/><path fill="none" stroke="rgb(0,153,255)" paint-order="fill stroke markers" d=" M 41.39999999999999 365.8164383561645 L 41.39999999999999 365.8147770319068 L 63.800000000000026 365.8147770319068 L 63.800000000000026 365.8164383561645 L 41.39999999999999 365.8164383561645" stroke-opacity="1" stroke-linecap="round" stroke-linejoin="round" stroke-miterlimit="10" stroke-width="1.5"/><path fill="none" stroke="rgb(0,153,255)" paint-order="fill stroke markers" d=" M 63.800000000000026 365.8164383561645 L 63.800000000000026 365.78321187101045 L 86.20000000000005 365.78321187101045 L 86.20000000000005 365.8164383561645 L 63.800000000000026 365.8164383561645" stroke-opacity="1" stroke-linecap="round" stroke-linejoin="round" stroke-miterlimit="10" stroke-width="1.5"/><path fill="none" stroke="rgb(0,153,255)" paint-order="fill stroke markers" d=" M 86.20000000000005 365.8164383561645 L 86.20000000000005 365.50078674720106 L 108.60000000000008 365.50078674720106 L 108.60000000000008 365.8164383561645 L 86.20000000000005 365.8164383561645" stroke-opacity="1" stroke-linecap="round" stroke-linejoin="round" stroke-miterlimit="10" stroke-width="1.5"/><path fill="none" stroke="rgb(0,153,255)" paint-order="fill stroke markers" d=" M 108.60000000000008 365.8164383561645 L 108.60000000000008 363.9225287023838 L 131.0000000000001 363.9225287023838 L 131.0000000000001 365.8164383561645 L 108.60000000000008 365.8164383561645" stroke-opacity="1" stroke-linecap="round" stroke-linejoin="round" stroke-miterlimit="10" stroke-width="1.5"/><path fill="none" stroke="rgb(0,153,255)" paint-order="fill stroke markers" d=" M 131.0000000000001 365.8164383561645 L 131.0000000000001 357.7673223275964 L 153.40000000000015 357.7673223275964 L 153.40000000000015 365.8164383561645 L 131.0000000000001 365.8164383561645" stroke-opacity="1" stroke-linecap="round" stroke-linejoin="round" stroke-miterlimit="10" stroke-width="1.5"/><path fill="none" stroke="rgb(0,153,255)" paint-order="fill stroke markers" d=" M 153.40000000000015 365.8164383561645 L 153.40000000000015 340.05926706474656 L 175.80000000000015 340.05926706474656 L 175.80000000000015 365.8164383561645 L 153.40000000000015 365.8164383561645" stroke-opacity="1" stroke-linecap="round" stroke-linejoin="round" stroke-miterlimit="10" stroke-width="1.5"/><path fill="none" stroke="rgb(0,153,255)" paint-order="fill stroke markers" d=" M 175.80000000000015 365.8164383561645 L 175.80000000000015 301.42351012761947 L 198.20000000000016 301.42351012761947 L 198.20000000000016 365.8164383561645 L 175.80000000000015 365.8164383561645" stroke-opacity="1" stroke-linecap="round" stroke-linejoin="round" stroke-miterlimit="10" stroke-width="1.5"/><path fill="none" stroke="rgb(0,153,255)" paint-order="fill stroke markers" d=" M 198.20000000000016 365.8164383561645 L 198.20000000000016 237.03058189907497 L 220.6000000000002 237.03058189907497 L 220.6000000000002 365.8164383561645 L 198.20000000000016 365.8164383561645" stroke-opacity="1" stroke-linecap="round" stroke-linejoin="round" stroke-miterlimit="10" stroke-width="1.5"/><path fill="none" stroke="rgb(0,153,255)" paint-order="fill stroke markers" d=" M 220.6000000000002 365.8164383561645 L 220.6000000000002 156.53942161339458 L 243.00000000000023 156.53942161339458 L 243.00000000000023 365.8164383561645 L 220.6000000000002 365.8164383561645" stroke-opacity="1" stroke-linecap="round" stroke-linejoin="round" stroke-miterlimit="10" stroke-width="1.5"/><path fill="none" stroke="rgb(0,153,255)" paint-order="fill stroke markers" d=" M 243.00000000000023 365.8164383561645 L 243.00000000000023 86.7804160324701 L 265.40000000000026 86.7804160324701 L 265.40000000000026 365.8164383561645 L 243.00000000000023 365.8164383561645" stroke-opacity="1" stroke-linecap="round" stroke-linejoin="round" stroke-miterlimit="10" stroke-width="1.5"/><path fill="none" stroke="rgb(0,153,255)" paint-order="fill stroke markers" d=" M 265.40000000000026 365.8164383561645 L 265.40000000000026 58.87681380010139 L 287.8000000000003 58.87681380010139 L 287.8000000000003 365.8164383561645 L 265.40000000000026 365.8164383561645" stroke-opacity="1" stroke-linecap="round" stroke-linejoin="round" stroke-miterlimit="10" stroke-width="1.5"/><path fill="none" stroke="rgb(0,153,255)" paint-order="fill stroke markers" d=" M 287.8000000000003 365.8164383561645 L 287.8000000000003 86.7804160324701 L 310.20000000000033 86.7804160324701 L 310.20000000000033 365.8164383561645 L 287.8000000000003 365.8164383561645" stroke-opacity="1" stroke-linecap="round" stroke-linejoin="round" stroke-miterlimit="10" stroke-width="1.5"/><path fill="none" stroke="rgb(0,153,255)" paint-order="fill stroke markers" d=" M 310.20000000000033 365.8164383561645 L 310.20000000000033 156.53942161339458 L 332.60000000000036 156.53942161339458 L 332.60000000000036 365.8164383561645 L 310.20000000000033 365.8164383561645" stroke-opacity="1" stroke-linecap="round" stroke-linejoin="round" stroke-miterlimit="10" stroke-width="1.5"/><path fill="none" stroke="rgb(0,153,255)" paint-order="fill stroke markers" d=" M 332.60000000000036 365.8164383561645 L 332.60000000000036 237.03058189907497 L 355.0000000000004 237.03058189907497 L 355.0000000000004 365.8164383561645 L 332.60000000000036 365.8164383561645" stroke-opacity="1" stroke-linecap="round" stroke-linejoin="round" stroke-miterlimit="10" stroke-width="1.5"/><path fill="none" stroke="rgb(0,153,255)" paint-order="fill stroke markers" d=" M 355.0000000000004 365.8164383561645 L 355.0000000000004 301.42351012761947 L 377.40000000000043 301.42351012761947 L 377.40000000000043 365.8164383561645 L 355.0000000000004 365.8164383561645" stroke-opacity="1" stroke-linecap="round" stroke-linejoin="round" stroke-miterlimit="10" stroke-width="1.5"/><path fill="none" stroke="rgb(0,153,255)" paint-order="fill stroke markers" d=" M 377.40000000000043 365.8164383561645 L 377.40000000000043 340.05926706474656 L 399.80000000000047 340.05926706474656 L 399.80000000000047 365.8164383561645 L 377.40000000000043 365.8164383561645" stroke-opacity="1" stroke-linecap="round" stroke-linejoin="round" stroke-miterlimit="10" stroke-width="1.5"/><path fill="none" stroke="rgb(0,153,255)" paint-order="fill stroke markers" d=" M 399.80000000000047 365.8164383561645 L 399.80000000000047 357.7673223275964 L 422.20000000000044 357.7673223275964 L 422.20000000000044 365.8164383561645 L 399.80000000000047 365.8164383561645" stroke-opacity="1" stroke-linecap="round" stroke-linejoin="round" stroke-miterlimit="10" stroke-width="1.5"/><path fill="none" stroke="rgb(0,153,255)" paint-order="fill stroke markers" d=" M 422.20000000000044 365.8164383561645 L 422.20000000000044 363.9225287023838 L 444.6000000000005 363.9225287023838 L 444.6000000000005 365.8164383561645 L 422.20000000000044 365.8164383561645" stroke-opacity="1" stroke-linecap="round" stroke-linejoin="round" stroke-miterlimit="10" stroke-width="1.5"/><path fill="none" stroke="rgb(0,153,255)" paint-order="fill stroke markers" d=" M 444.6000000000005 365.8164383561645 L 444.6000000000005 365.50078674720106 L 467.0000000000005 365.50078674720106 L 467.0000000000005 365.8164383561645 L 444.6000000000005 365.8164383561645" stroke-opacity="1" stroke-linecap="round" stroke-linejoin="round" stroke-miterlimit="10" stroke-width="1.5"/><path fill="none" stroke="rgb(0,153,255)" paint-order="fill stroke markers" d=" M 467.0000000000005 365.8164383561645 L 467.0000000000005 365.78321187101045 L 489.40000000000055 365.78321187101045 L 489.40000000000055 365.8164383561645 L 467.0000000000005 365.8164383561645" stroke-opacity="1" stroke-linecap="round" stroke-linejoin="round" stroke-miterlimit="10" stroke-width="1.5"/><path fill="none" stroke="rgb(0,153,255)" paint-order="fill stroke markers" d=" M 489.40000000000055 365.8164383561645 L 489.40000000000055 365.8147770319068 L 511.8000000000006 365.8147770319068 L 511.8000000000006 365.8164383561645 L 489.40000000000055 365.8164383561645" stroke-opacity="1" stroke-linecap="round" stroke-linejoin="round" stroke-miterlimit="10" stroke-width="1.5"/><path fill="rgb(0,153,255)" stroke="none" paint-order="stroke fill markers" fill-rule="evenodd" d=" M 41.39999999999999 365.8164383561645 L 41.39999999999999 365.8147770319068 L 63.800000000000026 365.8147770319068 L 63.800000000000026 365.8164383561645 L 41.39999999999999 365.8164383561645" fill-opacity="0.5490196078431373"/><path fill="rgb(0,153,255)" stroke="none" paint-order="stroke fill markers" fill-rule="evenodd" d=" M 63.800000000000026 365.8164383561645 L 63.800000000000026 365.78321187101045 L 86.20000000000005 365.78321187101045 L 86.20000000000005 365.8164383561645 L 63.800000000000026 365.8164383561645" fill-opacity="0.5490196078431373"/><path fill="rgb(0,153,255)" stroke="none" paint-order="stroke fill markers" fill-rule="evenodd" d=" M 86.20000000000005 365.8164383561645 L 86.20000000000005 365.50078674720106 L 108.60000000000008 365.50078674720106 L 108.60000000000008 365.8164383561645 L 86.20000000000005 365.8164383561645" fill-opacity="0.5490196078431373"/><path fill="rgb(0,153,255)" stroke="none" paint-order="stroke fill markers" fill-rule="evenodd" d=" M 108.60000000000008 365.8164383561645 L 108.60000000000008 363.9225287023838 L 131.0000000000001 363.9225287023838 L 131.0000000000001 365.8164383561645 L 108.60000000000008 365.8164383561645" fill-opacity="0.5490196078431373"/><path fill="rgb(0,153,255)" stroke="none" paint-order="stroke fill markers" fill-rule="evenodd" d=" M 131.0000000000001 365.8164383561645 L 131.0000000000001 357.7673223275964 L 153.40000000000015 357.7673223275964 L 153.40000000000015 365.8164383561645 L 131.0000000000001 365.8164383561645" fill-opacity="0.5490196078431373"/><path fill="rgb(0,153,255)" stroke="none" paint-order="stroke fill markers" fill-rule="evenodd" d=" M 153.40000000000015 365.8164383561645 L 153.40000000000015 340.05926706474656 L 175.80000000000015 340.05926706474656 L 175.80000000000015 365.8164383561645 L 153.40000000000015 365.8164383561645" fill-opacity="0.5490196078431373"/><path fill="rgb(0,153,255)" stroke="none" paint-order="stroke fill markers" fill-rule="evenodd" d=" M 175.80000000000015 365.8164383561645 L 175.80000000000015 301.42351012761947 L 198.20000000000016 301.42351012761947 L 198.20000000000016 365.8164383561645 L 175.80000000000015 365.8164383561645" fill-opacity="0.5490196078431373"/><path fill="none" stroke="rgb(0,153,255)" paint-order="fill stroke markers" d=" M 41.39999999999999 365.8164383561645 L 41.39999999999999 365.8147770319068 L 63.800000000000026 365.8147770319068 L 63.800000000000026 365.8164383561645 L 41.39999999999999 365.8164383561645" stroke-opacity="1" stroke-linecap="round" stroke-linejoin="round" stroke-miterlimit="10" stroke-width="1.5"/><path fill="none" stroke="rgb(0,153,255)" paint-order="fill stroke markers" d=" M 63.800000000000026 365.8164383561645 L 63.800000000000026 365.78321187101045 L 86.20000000000005 365.78321187101045 L 86.20000000000005 365.8164383561645 L 63.800000000000026 365.8164383561645" stroke-opacity="1" stroke-linecap="round" stroke-linejoin="round" stroke-miterlimit="10" stroke-width="1.5"/><path fill="none" stroke="rgb(0,153,255)" paint-order="fill stroke markers" d=" M 86.20000000000005 365.8164383561645 L 86.20000000000005 365.50078674720106 L 108.60000000000008 365.50078674720106 L 108.60000000000008 365.8164383561645 L 86.20000000000005 365.8164383561645" stroke-opacity="1" stroke-linecap="round" stroke-linejoin="round" stroke-miterlimit="10" stroke-width="1.5"/><path fill="none" stroke="rgb(0,153,255)" paint-order="fill stroke markers" d=" M 108.60000000000008 365.8164383561645 L 108.60000000000008 363.9225287023838 L 131.0000000000001 363.9225287023838 L 131.0000000000001 365.8164383561645 L 108.60000000000008 365.8164383561645" stroke-opacity="1" stroke-linecap="round" stroke-linejoin="round" stroke-miterlimit="10" stroke-width="1.5"/><path fill="none" stroke="rgb(0,153,255)" paint-order="fill stroke markers" d=" M 131.0000000000001 365.8164383561645 L 131.0000000000001 357.7673223275964 L 153.40000000000015 357.7673223275964 L 153.40000000000015 365.8164383561645 L 131.0000000000001 365.8164383561645" stroke-opacity="1" stroke-linecap="round" stroke-linejoin="round" stroke-miterlimit="10" stroke-width="1.5"/><path fill="none" stroke="rgb(0,153,255)" paint-order="fill stroke markers" d=" M 153.40000000000015 365.8164383561645 L 153.40000000000015 340.05926706474656 L 175.80000000000015 340.05926706474656 L 175.80000000000015 365.8164383561645 L 153.40000000000015 365.8164383561645" stroke-opacity="1" stroke-linecap="round" stroke-linejoin="round" stroke-miterlimit="10" stroke-width="1.5"/><path fill="none" stroke="rgb(0,153,255)" paint-order="fill stroke markers" d=" M 175.80000000000015 365.8164383561645 L 175.80000000000015 301.42351012761947 L 198.20000000000016 301.42351012761947 L 198.20000000000016 365.8164383561645 L 175.80000000000015 365.8164383561645" stroke-opacity="1" stroke-linecap="round" stroke-linejoin="round" stroke-miterlimit="10" stroke-width="1.5"/><path fill="rgb(0,153,255)" stroke="none" paint-order="stroke fill markers" fill-rule="evenodd" d=" M 355.0000000000004 365.8164383561645 L 355.0000000000004 301.42351012761947 L 377.40000000000043 301.42351012761947 L 377.40000000000043 365.8164383561645 L 355.0000000000004 365.8164383561645" fill-opacity="0.5490196078431373"/><path fill="rgb(0,153,255)" stroke="none" paint-order="stroke fill markers" fill-rule="evenodd" d=" M 377.40000000000043 365.8164383561645 L 377.40000000000043 340.05926706474656 L 399.80000000000047 340.05926706474656 L 399.80000000000047 365.8164383561645 L 377.40000000000043 365.8164383561645" fill-opacity="0.5490196078431373"/><path fill="rgb(0,153,255)" stroke="none" paint-order="stroke fill markers" fill-rule="evenodd" d=" M 399.80000000000047 365.8164383561645 L 399.80000000000047 357.7673223275964 L 422.20000000000044 357.7673223275964 L 422.20000000000044 365.8164383561645 L 399.80000000000047 365.8164383561645" fill-opacity="0.5490196078431373"/><path fill="rgb(0,153,255)" stroke="none" paint-order="stroke fill markers" fill-rule="evenodd" d=" M 422.20000000000044 365.8164383561645 L 422.20000000000044 363.9225287023838 L 444.6000000000005 363.9225287023838 L 444.6000000000005 365.8164383561645 L 422.20000000000044 365.8164383561645" fill-opacity="0.5490196078431373"/><path fill="rgb(0,153,255)" stroke="none" paint-order="stroke fill markers" fill-rule="evenodd" d=" M 444.6000000000005 365.8164383561645 L 444.6000000000005 365.50078674720106 L 467.0000000000005 365.50078674720106 L 467.0000000000005 365.8164383561645 L 444.6000000000005 365.8164383561645" fill-opacity="0.5490196078431373"/><path fill="none" stroke="rgb(0,153,255)" paint-order="fill stroke markers" d=" M 355.0000000000004 365.8164383561645 L 355.0000000000004 301.42351012761947 L 377.40000000000043 301.42351012761947 L 377.40000000000043 365.8164383561645 L 355.0000000000004 365.8164383561645" stroke-opacity="1" stroke-linecap="round" stroke-linejoin="round" stroke-miterlimit="10" stroke-width="1.5"/><path fill="none" stroke="rgb(0,153,255)" paint-order="fill stroke markers" d=" M 377.40000000000043 365.8164383561645 L 377.40000000000043 340.05926706474656 L 399.80000000000047 340.05926706474656 L 399.80000000000047 365.8164383561645 L 377.40000000000043 365.8164383561645" stroke-opacity="1" stroke-linecap="round" stroke-linejoin="round" stroke-miterlimit="10" stroke-width="1.5"/><path fill="none" stroke="rgb(0,153,255)" paint-order="fill stroke markers" d=" M 399.80000000000047 365.8164383561645 L 399.80000000000047 357.7673223275964 L 422.20000000000044 357.7673223275964 L 422.20000000000044 365.8164383561645 L 399.80000000000047 365.8164383561645" stroke-opacity="1" stroke-linecap="round" stroke-linejoin="round" stroke-miterlimit="10" stroke-width="1.5"/><path fill="none" stroke="rgb(0,153,255)" paint-order="fill stroke markers" d=" M 422.20000000000044 365.8164383561645 L 422.20000000000044 363.9225287023838 L 444.6000000000005 363.9225287023838 L 444.6000000000005 365.8164383561645 L 422.20000000000044 365.8164383561645" stroke-opacity="1" stroke-linecap="round" stroke-linejoin="round" stroke-miterlimit="10" stroke-width="1.5"/><path fill="none" stroke="rgb(0,153,255)" paint-order="fill stroke markers" d=" M 444.6000000000005 365.8164383561645 L 444.6000000000005 365.50078674720106 L 467.0000000000005 365.50078674720106 L 467.0000000000005 365.8164383561645 L 444.6000000000005 365.8164383561645" stroke-opacity="1" stroke-linecap="round" stroke-linejoin="round" stroke-miterlimit="10" stroke-width="1.5"/><path fill="none" stroke="rgb(0,0,0)" paint-order="fill stroke markers" d=" M 276.9999999999998 409 L 276.9999999999998 -1" stroke-opacity="0.6980392156862745" stroke-linejoin="round" stroke-miterlimit="10" stroke-width="1.5" stroke-dasharray="9.5,8"/><path fill="none" stroke="rgb(128,128,128)" paint-order="fill stroke markers" d=" M 196.99999999999977 365.8164383561645 L 196.99999999999977 400.6569332530554" stroke-opacity="0.6980392156862745" stroke-linecap="round" stroke-linejoin="round" stroke-miterlimit="10" stroke-width="1.5"/><path fill="none" stroke="rgb(128,128,128)" paint-order="fill stroke markers" d=" M 355.0000000000004 365.8164383561645 L 355.0000000000004 400.6569332530554" stroke-opacity="0.6980392156862745" stroke-linecap="round" stroke-linejoin="round" stroke-miterlimit="10" stroke-width="1.5"/><path fill="none" stroke="rgb(0,0,0)" paint-order="fill stroke markers" d=" M 196.99999999999977 383.2366858046099 L 259.9999999999998 383.2366858046099" stroke-opacity="0.6980392156862745" stroke-linejoin="round" stroke-miterlimit="10" stroke-width="2.5" stroke-dasharray="6.5,4"/><path fill="rgb(0,0,0)" stroke="none" paint-order="stroke fill markers" fill-rule="evenodd" d=" M 276.9999999999998 383.2366858046099 L 259.9999999999998 387.4866858046099 L 259.9999999999998 378.9866858046099 Z" fill-opacity="0.6980392156862745"/><path fill="none" stroke="rgb(0,0,0)" paint-order="fill stroke markers" d=" M 276.9999999999998 383.2366858046099 L 213.99999999999977 383.2366858046099" stroke-opacity="0.6980392156862745" stroke-linejoin="round" stroke-miterlimit="10" stroke-width="2.5" stroke-dasharray="6.5,4"/><path fill="rgb(0,0,0)" stroke="none" paint-order="stroke fill markers" fill-rule="evenodd" d=" M 196.99999999999977 383.2366858046099 L 213.99999999999977 378.9866858046099 L 213.99999999999977 387.4866858046099 Z" fill-opacity="0.6980392156862745"/><g transform="scale(19,19)"><g transform="translate(12.31578947368421,21.43128710526316)"><path fill="rgb(0,0,0)" stroke="none" paint-order="stroke fill markers" d=" M 0.28700000000000003 -0.683 L 0.183 -0.261 Q 0.226 -0.278 0.294 -0.354 Q 0.373 -0.442 0.44 -0.442 Q 0.488 -0.442 0.504 -0.402 Q 0.508 -0.391 0.508 -0.379 Q 0.508 -0.338 0.47400000000000003 -0.322 Q 0.463 -0.318 0.453 -0.318 Q 0.422 -0.318 0.41600000000000004 -0.34500000000000003 Q 0.41500000000000004 -0.34900000000000003 0.41500000000000004 -0.353 Q 0.41500000000000004 -0.381 0.44 -0.397 L 0.441 -0.398 L 0.441 -0.398 Q 0.454 -0.406 0.47200000000000003 -0.40700000000000003 L 0.468 -0.41100000000000003 Q 0.46 -0.417 0.447 -0.419 Q 0.445 -0.42 0.438 -0.42 Q 0.385 -0.42 0.309 -0.339 Q 0.305 -0.335 0.301 -0.33 L 0.295 -0.324 Q 0.243 -0.27 0.209 -0.25 Q 0.357 -0.231 0.357 -0.145 Q 0.357 -0.131 0.353 -0.114 Q 0.34500000000000003 -0.082 0.34500000000000003 -0.058 Q 0.34500000000000003 -0.011 0.377 -0.011 Q 0.423 -0.011 0.451 -0.094 Q 0.458 -0.111 0.464 -0.135 Q 0.47200000000000003 -0.152 0.47800000000000004 -0.153 Q 0.49 -0.153 0.49 -0.14300000000000002 Q 0.49 -0.127 0.47100000000000003 -0.078 Q 0.463 -0.058 0.454 -0.042 Q 0.422 0.011 0.375 0.011 Q 0.32 0.011 0.295 -0.037 Q 0.28300000000000003 -0.06 0.28300000000000003 -0.088 Q 0.28300000000000003 -0.099 0.28700000000000003 -0.123 Q 0.29 -0.133 0.29 -0.14400000000000002 Q 0.29 -0.20700000000000002 0.2 -0.225 Q 0.187 -0.228 0.17400000000000002 -0.229 Q 0.124 -0.021 0.11800000000000001 -0.01 Q 0.108 0.009000000000000001 0.084 0.011 Q 0.06 0.011 0.056 -0.01 Q 0.055 -0.014 0.055 -0.017 Q 0.055 -0.025 0.059000000000000004 -0.039 L 0.20400000000000001 -0.615 L 0.20700000000000002 -0.635 Q 0.20700000000000002 -0.646 0.193 -0.649 L 0.193 -0.649 Q 0.181 -0.652 0.157 -0.652 Q 0.135 -0.652 0.133 -0.664 Q 0.133 -0.681 0.152 -0.684 L 0.274 -0.6940000000000001 Q 0.28700000000000003 -0.6940000000000001 0.28700000000000003 -0.683 Z"/></g></g><path fill="none" stroke="rgb(0,0,0)" paint-order="fill stroke markers" d=" M 276.9999999999998 383.2366858046099 L 338.0000000000004 383.2366858046099" stroke-opacity="0.6980392156862745" stroke-linejoin="round" stroke-miterlimit="10" stroke-width="2.5" stroke-dasharray="6.5,4"/><path fill="rgb(0,0,0)" stroke="none" paint-order="stroke fill markers" fill-rule="evenodd" d=" M 355.0000000000004 383.2366858046099 L 338.0000000000004 387.4866858046099 L 338.0000000000004 378.9866858046099 Z" fill-opacity="0.6980392156862745"/><path fill="none" stroke="rgb(0,0,0)" paint-order="fill stroke markers" d=" M 355.0000000000004 383.2366858046099 L 293.9999999999998 383.2366858046099" stroke-opacity="0.6980392156862745" stroke-linejoin="round" stroke-miterlimit="10" stroke-width="2.5" stroke-dasharray="6.5,4"/><path fill="rgb(0,0,0)" stroke="none" paint-order="stroke fill markers" fill-rule="evenodd" d=" M 276.9999999999998 383.2366858046099 L 293.9999999999998 378.9866858046099 L 293.9999999999998 387.4866858046099 Z" fill-opacity="0.6980392156862745"/><g transform="scale(19,19)"><g transform="translate(16.36842105263158,21.48391868421053)"><path fill="rgb(0,0,0)" stroke="none" paint-order="stroke fill markers" d=" M 0.28700000000000003 -0.683 L 0.183 -0.261 Q 0.226 -0.278 0.294 -0.354 Q 0.373 -0.442 0.44 -0.442 Q 0.488 -0.442 0.504 -0.402 Q 0.508 -0.391 0.508 -0.379 Q 0.508 -0.338 0.47400000000000003 -0.322 Q 0.463 -0.318 0.453 -0.318 Q 0.422 -0.318 0.41600000000000004 -0.34500000000000003 Q 0.41500000000000004 -0.34900000000000003 0.41500000000000004 -0.353 Q 0.41500000000000004 -0.381 0.44 -0.397 L 0.441 -0.398 L 0.441 -0.398 Q 0.454 -0.406 0.47200000000000003 -0.40700000000000003 L 0.468 -0.41100000000000003 Q 0.46 -0.417 0.447 -0.419 Q 0.445 -0.42 0.438 -0.42 Q 0.385 -0.42 0.309 -0.339 Q 0.305 -0.335 0.301 -0.33 L 0.295 -0.324 Q 0.243 -0.27 0.209 -0.25 Q 0.357 -0.231 0.357 -0.145 Q 0.357 -0.131 0.353 -0.114 Q 0.34500000000000003 -0.082 0.34500000000000003 -0.058 Q 0.34500000000000003 -0.011 0.377 -0.011 Q 0.423 -0.011 0.451 -0.094 Q 0.458 -0.111 0.464 -0.135 Q 0.47200000000000003 -0.152 0.47800000000000004 -0.153 Q 0.49 -0.153 0.49 -0.14300000000000002 Q 0.49 -0.127 0.47100000000000003 -0.078 Q 0.463 -0.058 0.454 -0.042 Q 0.422 0.011 0.375 0.011 Q 0.32 0.011 0.295 -0.037 Q 0.28300000000000003 -0.06 0.28300000000000003 -0.088 Q 0.28300000000000003 -0.099 0.28700000000000003 -0.123 Q 0.29 -0.133 0.29 -0.14400000000000002 Q 0.29 -0.20700000000000002 0.2 -0.225 Q 0.187 -0.228 0.17400000000000002 -0.229 Q 0.124 -0.021 0.11800000000000001 -0.01 Q 0.108 0.009000000000000001 0.084 0.011 Q 0.06 0.011 0.056 -0.01 Q 0.055 -0.014 0.055 -0.017 Q 0.055 -0.025 0.059000000000000004 -0.039 L 0.20400000000000001 -0.615 L 0.20700000000000002 -0.635 Q 0.20700000000000002 -0.646 0.193 -0.649 L 0.193 -0.649 Q 0.181 -0.652 0.157 -0.652 Q 0.135 -0.652 0.133 -0.664 Q 0.133 -0.681 0.152 -0.684 L 0.274 -0.6940000000000001 Q 0.28700000000000003 -0.6940000000000001 0.28700000000000003 -0.683 Z"/></g></g><path fill="none" stroke="rgb(0,0,0)" paint-order="fill stroke markers" d=" M 196.99999999999977 361.8164383561645 L 200.46410161513754 367.8164383561645 L 193.535898384862 367.8164383561645 L 196.99999999999977 361.8164383561645 Z" stroke-opacity="1" stroke-linecap="square" stroke-miterlimit="10" stroke-width="2"/><path fill="rgb(0,0,0)" stroke="none" paint-order="stroke fill markers" fill-rule="evenodd" d=" M 196.99999999999977 361.8164383561645 L 200.46410161513754 367.8164383561645 L 193.535898384862 367.8164383561645 L 196.99999999999977 361.8164383561645 Z" fill-opacity="1"/><path fill="none" stroke="rgb(0,0,0)" paint-order="fill stroke markers" d=" M 355.0000000000004 361.8164383561645 L 358.46410161513813 367.8164383561645 L 351.53589838486266 367.8164383561645 L 355.0000000000004 361.8164383561645 Z" stroke-opacity="1" stroke-linecap="square" stroke-miterlimit="10" stroke-width="2"/><path fill="rgb(0,0,0)" stroke="none" paint-order="stroke fill markers" fill-rule="evenodd" d=" M 355.0000000000004 361.8164383561645 L 358.46410161513813 367.8164383561645 L 351.53589838486266 367.8164383561645 L 355.0000000000004 361.8164383561645 Z" fill-opacity="1"/><g transform="scale(19,19)"><g transform="translate(13.526315789473685,1.693712894736842)"><path fill="rgb(0,0,0)" stroke="none" paint-order="stroke fill markers" d=" M 0.231 -0.35100000000000003 L 0.231 -0.35100000000000003 L 0.189 -0.183 Q 0.17500000000000002 -0.127 0.17500000000000002 -0.098 Q 0.18 -0.014 0.249 -0.011 Q 0.317 -0.011 0.368 -0.08700000000000001 Q 0.378 -0.10300000000000001 0.379 -0.107 Q 0.387 -0.132 0.405 -0.209 L 0.452 -0.396 Q 0.46 -0.431 0.491 -0.431 Q 0.516 -0.426 0.52 -0.404 Q 0.52 -0.406 0.505 -0.337 Q 0.491 -0.28600000000000003 0.488 -0.269 L 0.46 -0.161 Q 0.44 -0.074 0.44 -0.057 Q 0.44 -0.011 0.47000000000000003 -0.011 Q 0.508 -0.011 0.534 -0.091 Q 0.539 -0.108 0.546 -0.135 Q 0.554 -0.152 0.56 -0.153 Q 0.5720000000000001 -0.153 0.5720000000000001 -0.14300000000000002 Q 0.5720000000000001 -0.128 0.554 -0.073 Q 0.548 -0.056 0.542 -0.044 Q 0.514 0.011 0.468 0.011 Q 0.41300000000000003 0.011 0.388 -0.035 Q 0.381 -0.047 0.378 -0.062 Q 0.331 -0.007 0.28500000000000003 0.006 Q 0.266 0.011 0.245 0.011 Q 0.185 0.011 0.148 -0.02 Q 0.097 0.185 0.093 0.195 Q 0.079 0.216 0.058 0.216 Q 0.035 0.216 0.031 0.195 Q 0.03 0.192 0.03 0.189 Q 0.03 0.185 0.033 0.17300000000000001 L 0.177 -0.406 Q 0.186 -0.441 0.217 -0.442 Q 0.243 -0.442 0.246 -0.41500000000000004 Q 0.246 -0.41400000000000003 0.231 -0.35100000000000003 Z"/></g></g></g></g></svg>